# xmcd CD database file
#
# Track frame offsets:
#	150
#	18522
#	32698
#	46127
#	54960
#
# Disc length: 925 seconds
#
# Revision: 1
# Processed by: cddbd v1.4PL0 Copyright (c) Steve Scherf et al.
# Submitted via: CDex 1.50
#
DISCID=32039b05
DTITLE=Por la sombra - Por la sombra
DYEAR=2003
DGENRE=Blues
TTITLE0=En mi imaginación
TTITLE1=Diez poemas
TTITLE2=Bajo la luz
TTITLE3=Hoy me siento bien
TTITLE4=Cuerpo escultural
EXTD=YEAR: 2003
EXTT0=
EXTT1=
EXTT2=
EXTT3=
EXTT4=
PLAYORDER=
